/* XPM */
static char *_36f02330ca74d01df0cc693d3c87318[] = {
/* columns rows colors chars-per-pixel */
"64 64 55 1 ",
"  c None",
". c #079FB5",
"X c #0BA1B6",
"o c #15A5B9",
"O c #1AA7BB",
"+ c #1DA8BC",
"@ c #22AABD",
"# c #2CACBF",
"$ c #2FADC0",
"% c #32AEC1",
"& c #39AFC1",
"* c #35B0C2",
"= c #3BB2C3",
"- c #44B4C5",
"; c #4CB6C6",
": c #4CB8C7",
"> c #4DB9C9",
", c #53BBCA",
"< c #5ABDCB",
"1 c #67BDCD",
"2 c #64C1CF",
"3 c #68C1CF",
"4 c #66C3D1",
"5 c #6CC4D1",
"6 c #73C6D3",
"7 c #74C9D5",
"8 c #7CCAD5",
"9 c #83CDD7",
"0 c #82CDD8",
"q c #89CFD9",
"w c #8DD1DC",
"e c #94D3DD",
"r c #9AD5DE",
"t c #9DD7E0",
"y c #A5DAE2",
"u c #ABDCE4",
"i c #B2DEE6",
"p c #AEE0E6",
"a c #B5E0E7",
"s c #B7E1E8",
"d c #BCE2E9",
"f c #C2E6EC",
"g c #CAE7EC",
"h c #C6E8ED",
"j c #CCE9EE",
"k c #D0EBEF",
"l c #D4ECF1",
"z c #DAEFF3",
"x c #DDF0F4",
"c c #E4F3F6",
"v c #EBF5F7",
"b c #E7F6F8",
"n c #ECF6F8",
"m c #F4F9FB",
"M c #FFFFFF",
/* pixels */
"                                                                ",
"                                                                ",
"                                                                ",
"                                                                ",
"          4>,,,,,,,,,,,,,,,,>,>>;=#2                            ",
"          =oOOOOOOOOoOOO+OO+O+O+++@++@$-                        ",
"          -+@@@@@@@@@@@@+@@@@@@@@@@@@@+++*                      ",
"          -+@@@@@@@@@@@@@@@@@@@@@@@@@@@@@++%                    ",
"          -+@@@@@@@@@@@@@@@@++ooO+@OooO@@@@++;                  ",
"          -+@@@@@@@@@@@@@@Oo$,9ydggsy8>@O@@@@+*                 ",
"          -+@@@@@@@@@@@@+o;tcMMMMMMMMMMz2O@@@@+$                ",
"          -+@@@@@@@@@@@o=ymMMMMMMMMMMMMMeo@@@@++#               ",
"          -+@@@@@@@@@@o5vMMMMMMMMMMMMMMMwo@@@@@@O*              ",
"          -+@@@@@@@@++eMMMMMMMMMMMMMMMMMwo@@@@@@@O-             ",
"          -+@@@@@@@@OyMMMMMMMMMMMMMMMMMMwo@@@@@@@@o             ",
"          -+@@@@@@@OyMMMMMMMMMMMMmMMMMMMwo@@@@@@@@@@            ",
"          -+@@@@@@o9MMMMMMMMMMf8>*=>9jMMwo@@@@@@@@@O;           ",
"          -+@@@@@+-mMMMMMMMMa-o&4775=O:keo@@@@@@@@@@@           ",
"          -+@@@@@oiMMMMMMMM8X,iy8888ri<+-+@@@@@@@@@@O<          ",
"          -+@@@@+-mMMMMMMM5.ey<7aklu8<yrO+@@@@@@@@@@+%          ",
"          -+@@@@oeMMMMMMMrXyw<xMMMMMMx29yO@@@@@@@@@@@+          ",
"          -+@@@++lMMMMMMzO8r2MMMMmMMMMM3e9o@@@@@@@@@@+          ",
"          -+@@@+-mMMMMMM8@i:mMMMv6erMMMm<i#@@@@@@@@@@O,         ",
"          -+@@@o2MMMMMMm$69yMMb,;@@%yMMMu88O@@@@@@@@@+=         ",
"          -+@@@o9MMMMMMkoy1bMMmwX4u>XgMMm2y+@@@@@@@@@+*         ",
"          &+@@@owMMMMMMiOy5MMMMhXwn6@cMMM3y@@@@@@@@@@+=         ",
"          &+@@@owMMMMMMi@y6MMMMdo=>@5mMMM7y#@@@@@@@@@@*         ",
"          =+@@@owMMMMMMdoy3MMMMhXtMyXeMMM3y@@@@@@@@@@+=         ",
"          -+@@@o8MMMMMMxOe2kMMmeX5a,XuMMz2rO@@@@@@@@@+*         ",
"          -+@@@o,MMMMMMM-,r8MMb,:@@*tmMM9e2O@@@@@@@@@+-         ",
"          -+@@@+*nMMMMMMyXi<fMMMb5weMMMh<i@@@@@@@@@@@+;         ",
"          -+@@@@odMMMMMMm-=f:gMMMmMmMMj-d>O@@@@@@@@@@+          ",
"          -+@@@@o6MMMMMMMjo<d,qcMMMMcq,s4o@@@@@@@@@@+@          ",
"          -+@@@@+#cMMMMMMMao-sw<59932wd-o@@@@@@@@@@@+-          ",
"          -+@@@@@o9MMMMMMMMg&o4yyreyy3O,5+@@@@@@@@@@o           ",
"          -+@@@@@+@lMMMMMMMMme=O+%%@O-yMeo@@@@@@@@@+$           ",
"          -+@@@@@@O,mMMMMMMMMMmkyeeulMMMwo@@@@@@@@@+            ",
"          -+@@@@@@@o8MMMMMMMMMMMMMMMMMMMwo@@@@@@@@+%            ",
"          -+@@@@@@@@o2mMMMMMMMMMMMMMMMMMwo@@@@@@@+@             ",
"          -+@@@@@@@@@o>xMMMMMMMMMMMMMMMMwo@@@@@@@O              ",
"          -+@@@@@@@@@@o%uMMMMMMMMMMMMMMMwo@@@@@@O;              ",
"          -+@@@@@@@@@@@OO,fMMMMMMMMMMMMMeo@@@@@O-               ",
"          -+@@@@@@@@@@@@@O+>rlmMMMMMMngw=+@@@@+&                ",
"          -+@@@@@@@@@@@@@@@Oo+=,5775,*+o+@@@+@                  ",
"          -+@@@@@@@@@@@@@@@@@@++oooo++@@@@++%                   ",
"          ;O@@@@@@@@@@@@@@@@@@@@@@@@@@@@++$                     ",
"          -+@@@@@@@@@@@@@@@@@@@@@@@@@+++$                       ",
"          -+@@@@@@@@@@@@@@@@@@@@@++@#&-                         ",
"          -+@@@@@@@@@@@@@@@@@@@@O<                              ",
"          -+@@@@@@@@@@@@@@@@@@@@o                               ",
"          -+@@@@@@@@@@@@@@@@@@@@O                               ",
"          -+@@@@@@@@@@@@@@@@@@@@o                               ",
"          -+@@@@@@@@@@@@@@@@@@@@O                               ",
"          -+@@@@@@@@@@@@@@@@@@@@o                               ",
"          -+@@@@@@@@@@@@@@@@@@@@O                               ",
"          -+@@@@@@@@@@@@@@@@@@@@o                               ",
"          -++@@@@@@@@@@@@@@@@@@@o                               ",
"          -+@@@@@@@@@@@@@@@@@@@@O                               ",
"          ;+++@@@@@@@@@@@@@@@@@@o                               ",
"          -++$+@@+@@@+@@@@+@@+@@O                               ",
"          >@$$$$########$$$#####@                               ",
"                                                                ",
"                                                                ",
"                                                                "
};
