/* XPM */
static char *_95095f006374f7bb581217bc476a179[] = {
/* columns rows colors chars-per-pixel */
"48 48 56 1 ",
"  c None",
". c #0EA2B7",
"X c #0FA4B8",
"o c #14A5B9",
"O c #19A7BB",
"+ c #1DA8BC",
"@ c #22AABD",
"# c #2BACBF",
"$ c #2DAEC0",
"% c #32AFC1",
"& c #35B1C2",
"* c #3BB2C3",
"= c #42B3C4",
"- c #4AB6C6",
"; c #47B8C8",
": c #4DB9C9",
"> c #54BCCB",
", c #5BBECC",
"< c #62BECE",
"1 c #5EC1CE",
"2 c #63C1CF",
"3 c #68C0CE",
"4 c #66C3D0",
"5 c #6AC4D1",
"6 c #72C7D3",
"7 c #76C8D4",
"8 c #7BCAD6",
"9 c #7DCDD8",
"0 c #80CCD7",
"q c #84CED9",
"w c #8ACFDA",
"e c #8ED1DB",
"r c #93D3DD",
"t c #9AD6DF",
"y c #9BD7E0",
"u c #9CD8E1",
"i c #A3DAE2",
"p c #ABDDE4",
"a c #B4DFE7",
"s c #B2E1E7",
"d c #B5E2E9",
"f c #BCE4EA",
"g c #C3E7EC",
"h c #C6E8ED",
"j c #CBEAEF",
"k c #D0EBEF",
"l c #D3EDF2",
"z c #D9EFF3",
"x c #DCF1F4",
"c c #E4F3F6",
"v c #EAF6F7",
"b c #E7F6F8",
"n c #EDF7F9",
"m c #EEF9FA",
"M c #F4FAFB",
"N c #FFFFFF",
/* pixels */
"                                                ",
"                                                ",
"       <;::::::;:::::::-**:                     ",
"       *oOOo+o++OOO+OOOO+++@#*                  ",
"       =+@@##@@@@@#@@++OoOOoO++*                ",
"       =+@@@+@@@@@@OXO@#&&$#Oo@O+;              ",
"       =+@@@@@@@@+o+>ragklgdt,@@+o%             ",
"       =O@@@@@+#Oo,avNNNNNNNNc$+@@O#            ",
"       =+@@@@@#o@rnNNNNNNNNNNn&+@@@o&           ",
"       =+@@@+#X#fNNNNNNNNNNNNc%+@@@@o=          ",
"       =+@@@@o#fNNNNNNNNNNNNNc&O@@@@+o          ",
"       =+@@@OoyNNNNNNNluqqyhNm&+@@@@@+@         ",
"       =+@@@o,nNNNNNz3*2113-2a&+@@@@@@O3        ",
"       =+@@o#gNNNNNg*,tr00wt7&@@@@@@@@+#        ",
"       =++@o>vNNNNx*6wrcNNMp8r&+@@@@@@@@        ",
"       =+@+OtNNNNN22rdNNMcNNz0r+@@@@@@@+        ",
"       =+@O$fNNNNj%qyNmg0%uMNj72o@@@@@@+;       ",
"       =+@o&jNNNN8,qxNc;&6&iNNreO@@@@@@+#       ",
"       *+@o*lNNNN,8iNNN6:d&yNNg8@@@@@@@+&       ",
"       %+@o*lNNNN,0iNNN9=r=iNNg8$+@@@@@+*       ",
"       *+@O&lNNNN36rMNN4,M-1MNpw@+@@@@@+%       ",
"       =+@o&gNNNNi*9dNx:&;;dNv78o@@@@@@+*       ",
"       =+@O+pNNNNM=qwcMci4gNNre&++@@@@@+-       ",
"       =+@@o6NNNNNi*rqzNNMNMre4O@@@@@@@+        ",
"       =+@@o*lNNNNN7*wqtsdiwq2O@@@@@@@+#        ",
"       =+@@+orNNNNNNq%79,,60:1&+@@@@@@O-        ",
"       =+@@@o#gNNNNNNj5,>>,3fM&O@@@@@+O         ",
"       =O@@@#.,vNNNNNNNNccNNNc&++#@@#o;         ",
"       =+@@@@+X5vNNNNNNNNNNNNc#@@@@@O@          ",
"       =+@@@@#@X2lNNNNNNNNNNNc&@@@@+o           ",
"       =+@@@@@@+o*pMNNNNNNNNNM#@@@+o;           ",
"       =O@@@@@@@@o@:tcNNNNNNci@@@+o>            ",
"       =+@@@@@@@@@Oo@*:3664:=@@@O#              ",
"       =+@@@@@@@@@@@+OOOO+OOO+++&               ",
"       =+@@@@@+@@@@@@@@@++++@@%                 ",
"       =+@@@@@@@@@@@@@@@@@$**                   ",
"       =+@@@@@@@@@@@@@@o,                       ",
"       =+@@@@@@@@@@@@@@X7                       ",
"       =+@@@@@@@@@@@@@@o4                       ",
"       =+@@@@@@@@@@@@@@X4                       ",
"       =++@@@@@@@@@@@@@o4                       ",
"       =+@@@@@@@@@@@@@+o4                       ",
"       =+@@@@@@@@@@@@@@X5                       ",
"       =+@@@@+@@@@@@@@@o4                       ",
"       *+@+@@++@@@+@+@@X4                       ",
"       -##$#$$$$##$####+6                       ",
"                                                ",
"                                                "
};
