/* XPM */
static char *_0f77f0b814d48ce856bb62972bedb07[] = {
/* columns rows colors chars-per-pixel */
"32 31 210 2 ",
"   c None",
".  c #12A4B8",
"X  c #13A4B8",
"o  c #14A5B9",
"O  c #15A5B9",
"+  c #16A5B9",
"@  c #15A6B9",
"#  c #16A6B9",
"$  c #14A5BA",
"%  c #15A5BA",
"&  c #15A6BA",
"*  c #16A6BA",
"=  c #17A6BA",
"-  c #17A7BA",
";  c #18A6BA",
":  c #19A7BA",
">  c #18A7BB",
",  c #19A7BB",
"<  c #1AA7BA",
"1  c #1AA7BB",
"2  c #1CA7BB",
"3  c #1AA8BB",
"4  c #1BA8BB",
"5  c #1CA8BB",
"6  c #1AA8BC",
"7  c #1CA8BC",
"8  c #1DA8BC",
"9  c #1DA9BC",
"0  c #1EA8BC",
"q  c #1EA9BC",
"w  c #1FA9BC",
"e  c #1FA9BD",
"r  c #20A9BC",
"t  c #21A9BC",
"y  c #20A9BD",
"u  c #21A9BD",
"i  c #23A9BC",
"p  c #20AABD",
"a  c #21AABD",
"s  c #22AABD",
"d  c #23AABD",
"f  c #23ABBE",
"g  c #24ABBE",
"h  c #25ABBE",
"j  c #26ABBE",
"k  c #27ABBE",
"l  c #27ACBE",
"z  c #2AADBF",
"x  c #2DACBF",
"c  c #2CADBF",
"v  c #2DADC0",
"b  c #2FAEC0",
"n  c #30AEC0",
"m  c #30AFC1",
"M  c #37AEC1",
"N  c #36AFC1",
"B  c #35B0C1",
"V  c #37B2C3",
"C  c #38B1C2",
"Z  c #3AB0C2",
"A  c #3DB2C3",
"S  c #3EB2C3",
"D  c #39B2C4",
"F  c #3AB2C4",
"G  c #3AB3C4",
"H  c #3CB2C4",
"J  c #3DB3C4",
"K  c #3DB4C5",
"L  c #41B3C4",
"P  c #42B3C4",
"I  c #46B3C5",
"U  c #41B4C5",
"Y  c #43B4C5",
"T  c #41B5C6",
"R  c #43B6C7",
"E  c #44B4C5",
"W  c #46B4C5",
"Q  c #44B6C6",
"!  c #46B6C7",
"~  c #47B7C7",
"^  c #48B7C7",
"/  c #4CB6C7",
"(  c #4AB8C8",
")  c #4CB8C8",
"_  c #4DB8C8",
"`  c #4DB8C9",
"'  c #4CB9C9",
"]  c #4EB8C8",
"[  c #4EB9C9",
"{  c #53B9C8",
"}  c #50BACA",
"|  c #51BACA",
" . c #50BBCA",
".. c #53BBCA",
"X. c #57BACA",
"o. c #57BCCB",
"O. c #54BDCC",
"+. c #5BBDCC",
"@. c #59BECD",
"#. c #5ABECC",
"$. c #5BBECD",
"%. c #5ABFCD",
"&. c #5CBECC",
"*. c #5CBFCD",
"=. c #60BCCB",
"-. c #5CC0CE",
";. c #5DC0CE",
":. c #5FC0CE",
">. c #5EC1CF",
",. c #61C0CE",
"<. c #60C1CF",
"1. c #61C1CF",
"2. c #62C1CF",
"3. c #65C0CE",
"4. c #65C2D0",
"5. c #66C3D0",
"6. c #69C3D0",
"7. c #68C3D1",
"8. c #6DC4D2",
"9. c #6FC5D2",
"0. c #6FC6D2",
"q. c #72C5D2",
"w. c #71C6D3",
"e. c #73C6D2",
"r. c #75C6D3",
"t. c #70C7D4",
"y. c #72C7D4",
"u. c #75C8D4",
"i. c #76C8D4",
"p. c #77C8D4",
"a. c #77C9D6",
"s. c #77CAD6",
"d. c #7BC9D5",
"f. c #7BCAD6",
"g. c #7DCBD7",
"h. c #7FCBD6",
"j. c #7FCCD7",
"k. c #7ECCD8",
"l. c #80CCD7",
"z. c #81CCD7",
"x. c #80CDD8",
"c. c #83CDD9",
"v. c #81CED9",
"b. c #83CFDA",
"n. c #87CFDA",
"m. c #88CFDA",
"M. c #89D0DA",
"N. c #8AD0DB",
"B. c #8DD2DC",
"V. c #8ED3DD",
"C. c #91D3DC",
"Z. c #91D3DD",
"A. c #90D5DE",
"S. c #95D5DF",
"D. c #97D5DE",
"F. c #97D5DF",
"G. c #98D5DE",
"H. c #9AD6DF",
"J. c #98D6E0",
"K. c #9ED8E0",
"L. c #9ED8E1",
"P. c #A0D9E2",
"I. c #A2DAE2",
"U. c #A3DBE3",
"Y. c #A4DBE3",
"T. c #A5DBE3",
"R. c #AADCE4",
"E. c #AFDFE6",
"W. c #B1E0E7",
"Q. c #B3E1E8",
"!. c #B8E2E8",
"~. c #B8E3E9",
"^. c #BAE3EA",
"/. c #BBE4EA",
"(. c #BCE4EA",
"). c #C3E7EC",
"_. c #C4E6EC",
"`. c #C4E7EC",
"'. c #C9E9ED",
"]. c #CAEAEF",
"[. c #CCEAEE",
"{. c #CEEBEF",
"}. c #CDEBF0",
"|. c #CFEBF0",
" X c #CFECF0",
".X c #D2EDF1",
"XX c #D7EFF2",
"oX c #DBF0F3",
"OX c #DBF0F4",
"+X c #DCF1F4",
"@X c #E0F2F5",
"#X c #E3F3F6",
"$X c #E3F4F6",
"%X c #E4F4F6",
"&X c #E5F4F7",
"*X c #E6F4F7",
"=X c #E9F6F8",
"-X c #EAF6F8",
";X c #EBF7F9",
":X c #F1F8FA",
">X c #F3FAFB",
",X c #F4FAFB",
"<X c #F3FAFC",
"1X c #F4FAFC",
"2X c #F5FBFC",
"3X c #F9FCFD",
"4X c #FAFCFD",
"5X c #FDFDFE",
"6X c #FEFEFF",
"7X c white",
/* pixels */
"          3.' } } } } } } } } } ] Z L                           ",
"          A $ 1 1 4 1 1 1 1 1 $ $ 1 $ 1 0 c                     ",
"          Y 7 s s s s s s 1 @ j Z Q Q B 4 4 4 B                 ",
"          Y 7 s s s s 0 $ ) I.oX,X7X3X=X).Y 0 0 d               ",
"          Y 7 s s s 0 0 N.3X7X7X7X7X7X7X7X-.$ d 7 d             ",
"          Y 7 s i 0 j /.7X7X7X7X7X7X7X7X7X@.- a a 6 B           ",
"          Y 7 s s $ I.7X7X7X7X3X|.Q.(.*X7X-.$ i d a - =.        ",
"          Y 7 s 1 *.7X7X7X7X^.4.@.@.&.,.N.) 0 i a d a b         ",
"          Y 7 s 7 |.7X7X7XE.( z.I.oX[.V.f.c 0 s d a a 4         ",
"          Y 7 4 ' 7X7X7X#X' m.+X7X:X,X7X!.u.a i a d a 4 o.      ",
"          Y 2 @ s.7X7X7XJ.8.`.7XT.' ,.#X7XH.) 4 d a d 7 A       ",
"          Z 0 @ V.7X7X7Xj.q.*X7XA.-.7.K.7X`.8.1 a d a s Z       ",
"          M 0 $ A.7X7X7Xf.q.=X7XT.,.8.J.7X].u.1 s s j 7 G       ",
"          P 0 $ x.7X7X7XV.q. X7Xx.O.5.D.7XR.} 4 s s s 7 G       ",
"          Y 7 4 @.7X7X7X].' D.2X<XH.Y.7X.Xx.z i s s s 7 Q       ",
"          Y 7 7 z #X7X7X7Xn.X.D.{.=X$X^.k.Y 4 s s s s 4         ",
"          Y 7 s $ s.7X7X7X7XA.Q 7.x.l.@.,.K 7 a a d i d         ",
"          Y 7 s e s ].7X7X7X7X{.D.x.m.E.:X,.4 a d a 0 Q         ",
"          Y 7 s s 1 D *X7X7X7X7X7X7X7X7X7X@.$ s a 0 d           ",
"          Y 7 s s s 1 J ).7X7X7X7X7X7X7X7X-.1 s a 0             ",
"          Y 7 s s s j 1 0 t.XX7X7X7X7X7X:X .0 s 0 }             ",
"          Y 7 s s s s s i $ d  .s.x.j.,.G s 7 d                 ",
"          Y 1 s s s s s s s s 6 $ @ X $ 4 s A                   ",
"          P e s s s s s s s s d s d x B Q                       ",
"          Y 7 s d a d a d a d a 4 r.                            ",
"          Y 7 s a d a d a d a d $                               ",
"          Y 7 s d a d a d a d a 1                               ",
"          Y 7 s a d a a a d a d $                               ",
"          Y 6 s a a d a s s s s 1                               ",
"          Y 6 s 7 s a a s 7 s s $ f.                            ",
"          / j x x x x x x x x x s                               "
};
