/* XPM */
static char *dc0d3e0894e54eb6d0126611ff901bf4[] = {
/* columns rows colors chars-per-pixel */
"24 23 151 2 ",
"   c None",
".  c #11A4B8",
"X  c #12A4B8",
"o  c #13A5B9",
"O  c #14A5B9",
"+  c #15A5B9",
"@  c #16A5B9",
"#  c #15A5BA",
"$  c #16A6BA",
"%  c #17A6BA",
"&  c #18A6BA",
"*  c #19A7BA",
"=  c #18A7BB",
"-  c #19A7BB",
";  c #1AA7BB",
":  c #1CA7BB",
">  c #1AA8BB",
",  c #1BA8BB",
"<  c #1CA8BB",
"1  c #1DA8BB",
"2  c #1EA8BB",
"3  c #1CA8BC",
"4  c #1DA8BC",
"5  c #1EA8BC",
"6  c #1EA9BC",
"7  c #1FA9BC",
"8  c #20A8BC",
"9  c #20A9BC",
"0  c #21A9BC",
"q  c #20A9BD",
"w  c #21A9BD",
"e  c #22A9BD",
"r  c #21AABD",
"t  c #22AABD",
"y  c #24AABD",
"u  c #26AABD",
"i  c #24ABBE",
"p  c #29ABBE",
"a  c #29ACBE",
"s  c #2AACBF",
"d  c #2CADBF",
"f  c #2FADBF",
"g  c #2EAEC0",
"h  c #2FAEC0",
"j  c #2FAFC0",
"k  c #30ADC0",
"l  c #30AEC0",
"z  c #30AEC1",
"x  c #30AFC1",
"c  c #31AFC1",
"v  c #33AFC1",
"b  c #34AFC1",
"n  c #32B0C2",
"m  c #37B0C2",
"M  c #39B1C2",
"N  c #38B1C3",
"B  c #3AB0C2",
"V  c #38B2C3",
"C  c #39B2C3",
"Z  c #3EB2C3",
"A  c #3BB3C4",
"S  c #40B5C6",
"D  c #45B4C5",
"F  c #47B5C6",
"G  c #48B5C5",
"H  c #48B5C6",
"J  c #49B7C7",
"K  c #4BB7C7",
"L  c #4CB9C9",
"P  c #4EBBCA",
"I  c #4FBBCA",
"U  c #53B9C9",
"Y  c #51BBCA",
"T  c #56B9C9",
"R  c #54BCCB",
"E  c #56BDCC",
"W  c #5EBFCD",
"Q  c #5FBFCD",
"!  c #60BFCD",
"~  c #63C1CE",
"^  c #64C1CF",
"/  c #66C2CF",
"(  c #65C2D0",
")  c #67C3D0",
"_  c #69C3D0",
"`  c #6AC3D0",
"'  c #6AC4D1",
"]  c #6CC4D1",
"[  c #71C6D3",
"{  c #70C7D3",
"}  c #73C9D5",
"|  c #7FCBD7",
" . c #7DCCD7",
".. c #7ECCD8",
"X. c #80CCD7",
"o. c #84CDD8",
"O. c #85CFD9",
"+. c #87CED9",
"@. c #87CFDA",
"#. c #8DD2DC",
"$. c #92D3DD",
"%. c #94D4DD",
"&. c #94D4DE",
"*. c #99D6E0",
"=. c #9AD6E0",
"-. c #9AD7E0",
";. c #9BD8E0",
":. c #9ED9E1",
">. c #A2DAE2",
",. c #A4DBE3",
"<. c #A6DCE3",
"1. c #AEDFE6",
"2. c #B2E1E7",
"3. c #B4E1E8",
"4. c #B6E2E9",
"5. c #BAE2E8",
"6. c #BAE2E9",
"7. c #C5E7EC",
"8. c #C4E8ED",
"9. c #C7E8ED",
"0. c #C7E9ED",
"q. c #CAEAEF",
"w. c #CDEBEF",
"e. c #CEEBF0",
"r. c #D0ECF1",
"t. c #D1EDF1",
"y. c #D3EDF0",
"u. c #D2EEF2",
"i. c #DBF0F3",
"p. c #DCF0F3",
"a. c #DAF1F4",
"s. c #DBF1F4",
"d. c #DDF1F4",
"f. c #DFF2F5",
"g. c #E0F2F5",
"h. c #E2F3F6",
"j. c #E3F3F6",
"k. c #E8F5F7",
"l. c #ECF7F9",
"z. c #EDF8FA",
"x. c #F0F9FA",
"c. c #F1F9FA",
"v. c #F1F9FB",
"b. c #F7FCFD",
"n. c #F8FCFD",
"m. c #F9FCFD",
"M. c #FBFDFD",
"N. c #FCFEFE",
"B. c #FDFEFE",
"V. c #FEFEFF",
"C. c white",
/* pixels */
"        J m A A A A A A A f Z J                 ",
"        v : 7 3 3 7 # . # y & . t J             ",
"        b < t y 7 & L ;.q.p.w.<.n # h           ",
"        v t t < t &.C.C.C.C.C.C.L 3 3 h         ",
"        b 7 9 < 3.C.C.C.v.f.z.C.U 3 t 3 F       ",
"        b 7 # ..C.C.n.=._ W ' $.S 3 t 7 <       ",
"        b < a h.C.C.o.' 8.k.y.o.A & t t , T     ",
"        b # R C.C.8.! p.h.#.y.v.X.t t t < A     ",
"        v # } C.C.&.X.C.1.Y [ C.5.m 7 t 7 j     ",
"        f o } C.C.&.| C.2./ / b.5.A , t < n     ",
"        v # E C.C.8.W h.y.{ 3.v...i t r 7 m     ",
"        b & a h.C.C.o.' 8.p.w.+.V 7 t r , U     ",
"        b 7 # | C.C.n.=.~ / / $.Z 7 r r :       ",
"        b 7 t & 3.C.C.C.v.s.l.C.L 3 r 3 K       ",
"        v 7 t 7 t >.C.C.C.C.C.C.L 3 7 p         ",
"        v 7 t t 7 & L ;.e.a.y.>.v - a           ",
"        b 7 t t t t & # t t < o < F             ",
"        b 7 t t t t t t 7 h b                   ",
"        b 7 t t t t t t &                       ",
"        b 7 t t t t t t 3                       ",
"        b 7 t t t t t t &                       ",
"        v 7 t t t t 7 t 3                       ",
"        A y p p p p p p 7                       "
};
