/* XPM */
static char *_6045c65f177441ba987db7ec63fc938[] = {
/* columns rows colors chars-per-pixel */
"16 15 95 2 ",
"   c None",
".  c #0BA2B7",
"X  c #0CA2B7",
"o  c #16A5BA",
"O  c #16A6BA",
"+  c #17A6BA",
"@  c #19A6BA",
"#  c #18A7BA",
"$  c #19A7BA",
"%  c #19A7BB",
"&  c #1AA7BB",
"*  c #1DA7BB",
"=  c #1EA9BB",
"-  c #1CA8BC",
";  c #1DA8BC",
":  c #1DA9BC",
">  c #1EA8BC",
",  c #1EA9BC",
"<  c #1FAABD",
"1  c #20A8BC",
"2  c #22A9BC",
"3  c #20AABD",
"4  c #21AABD",
"5  c #22AABD",
"6  c #23AABD",
"7  c #25AABD",
"8  c #25ABBE",
"9  c #26ABBE",
"0  c #27ABBE",
"q  c #26ACBE",
"w  c #28AABD",
"e  c #28ACBE",
"r  c #29ACBF",
"t  c #2AADBF",
"y  c #2BADBF",
"u  c #2DAEC0",
"i  c #2FAEC1",
"p  c #30AEC0",
"a  c #31AFC1",
"s  c #32B0C2",
"d  c #39B1C2",
"f  c #38B1C3",
"g  c #38B2C3",
"h  c #3AB2C3",
"j  c #3DB1C2",
"k  c #3FB3C4",
"l  c #3EB5C5",
"z  c #41B6C7",
"x  c #45B7C7",
"c  c #48B6C6",
"v  c #4CBAC9",
"b  c #4FBACA",
"n  c #54BBCB",
"m  c #55BCCB",
"M  c #57BDCC",
"N  c #5DC1CF",
"B  c #60C1CF",
"V  c #6AC4D1",
"C  c #68C5D2",
"Z  c #6EC7D4",
"A  c #73C9D5",
"S  c #74C9D5",
"D  c #77CAD6",
"F  c #82CED9",
"G  c #84CED9",
"H  c #8CD2DC",
"J  c #8ED2DC",
"K  c #8FD2DC",
"L  c #93D4DE",
"P  c #94D4DD",
"I  c #97D6DF",
"U  c #9CD9E1",
"Y  c #9ED8E1",
"T  c #A2DBE3",
"R  c #A3DBE3",
"E  c #A4DBE3",
"W  c #A6DBE3",
"Q  c #A7DCE4",
"!  c #AADEE5",
"~  c #B2E0E7",
"^  c #B9E3E9",
"/  c #BAE3E9",
"(  c #BCE4EA",
")  c #C5E8ED",
"_  c #C7E9EE",
"`  c #CCEAEF",
"'  c #CFEBF0",
"]  c #D0ECF0",
"[  c #D0EDF1",
"{  c #DBF1F4",
"}  c #DEF1F4",
"|  c #E0F3F5",
" . c #FBFDFE",
".. c #FEFEFE",
"X. c white",
/* pixels */
"      h s s i 7 2 w             ",
"      e ; O q D Q U z w         ",
"      e & h ' X.X.X.H X h       ",
"      u ; _ X.^ H T N & O       ",
"      6 v X.) H ] ] V ; ; h     ",
"      * A X.I } F R ` q ; e     ",
"      * Z X.I ] L ! ( 7 2 w     ",
"      7 l  .{ G ~ ~ M ; - z     ",
"      y O Q X.} Q ^ D O O       ",
"      y ; 7 T X.X.X.F . c       ",
"      y ; ; & x V N y j         ",
"      y 4 4 ; - q j             ",
"      y 4 4 4 - M               ",
"      e ; 6 4 - v               ",
"      s 7 7 7 6 n               "
};
