/* XPM */
static char *a4c73e99712b4e43d2115740a301a683[] = {
/* columns rows colors chars-per-pixel */
"20 19 131 2 ",
"   c None",
".  c #12A4B8",
"X  c #13A4B9",
"o  c #13A5B9",
"O  c #14A5B9",
"+  c #17A5B9",
"@  c #17A6B9",
"#  c #16A5BA",
"$  c #17A6BA",
"%  c #18A6BA",
"&  c #18A7BA",
"*  c #19A7BB",
"=  c #1AA7BB",
"-  c #1BA7BB",
";  c #1CA7BB",
":  c #1AA8BB",
">  c #1BA8BB",
",  c #1CA8BB",
"<  c #1DA8BB",
"1  c #1DA8BC",
"2  c #1FA9BC",
"3  c #1FA9BD",
"4  c #20A9BC",
"5  c #21A9BC",
"6  c #20A9BD",
"7  c #20AABD",
"8  c #21AABD",
"9  c #22AABD",
"0  c #23AABD",
"q  c #24AABD",
"w  c #27AABD",
"e  c #25AABE",
"r  c #25ABBE",
"t  c #27ABBE",
"y  c #28ABBE",
"u  c #28ACBE",
"i  c #2BACBF",
"p  c #2CADBF",
"a  c #2EADBF",
"s  c #2DADC0",
"d  c #2EADC0",
"f  c #2CAEC0",
"g  c #2EAEC0",
"h  c #2FAEC0",
"j  c #30AFC1",
"k  c #31AFC1",
"l  c #33AEC1",
"z  c #32AFC1",
"x  c #35AFC1",
"c  c #36AFC1",
"v  c #33B0C1",
"b  c #35B1C3",
"n  c #37B1C3",
"m  c #37B2C3",
"M  c #39B2C3",
"N  c #3DB1C3",
"B  c #3DB2C4",
"V  c #3EB3C4",
"C  c #3DB4C5",
"Z  c #3FB4C5",
"A  c #3FB5C5",
"S  c #45B3C4",
"D  c #41B6C6",
"F  c #44B4C5",
"G  c #46B5C6",
"H  c #44B6C7",
"J  c #45B6C7",
"K  c #44B7C7",
"L  c #48B6C6",
"P  c #49B7C8",
"I  c #4AB9C9",
"U  c #50B9C9",
"Y  c #50BCCA",
"T  c #55BDCC",
"R  c #57BDCC",
"E  c #59BECD",
"W  c #62C1CF",
"Q  c #6FC7D3",
"!  c #73C7D3",
"~  c #75C8D4",
"^  c #76C8D4",
"/  c #77C8D4",
"(  c #7AC9D5",
")  c #7FCBD6",
"_  c #7FCCD7",
"`  c #85CED8",
"'  c #86CED9",
"]  c #85CFDA",
"[  c #87D0DA",
"{  c #88D0DA",
"}  c #88D0DB",
"|  c #8BD1DB",
" . c #8ED1DB",
".. c #8FD3DD",
"X. c #92D3DC",
"o. c #93D4DD",
"O. c #99D6DF",
"+. c #9DD8E1",
"@. c #9FD8E0",
"#. c #9FD8E1",
"$. c #A3D9E1",
"%. c #A5DBE3",
"&. c #B3E0E7",
"*. c #B7E2E9",
"=. c #B8E3E9",
"-. c #BFE5EB",
";. c #C3E7ED",
":. c #C8E9EE",
">. c #CEEBEF",
",. c #CFEBEF",
"<. c #D5EFF3",
"1. c #E1F2F5",
"2. c #E1F3F5",
"3. c #E2F3F5",
"4. c #E1F2F6",
"5. c #E3F3F6",
"6. c #E3F4F6",
"7. c #E9F6F8",
"8. c #ECF7F9",
"9. c #EDF8F9",
"0. c #F0F9FA",
"q. c #F0F9FB",
"w. c #F1FAFB",
"e. c #F3FAFB",
"r. c #F4FAFB",
"t. c #F5FAFB",
"y. c #F8FBFC",
"u. c #F9FCFD",
"i. c #FAFDFD",
"p. c #FBFDFD",
"a. c white",
/* pixels */
"      B k k k k k p 7 y c               ",
"      i ; 5 7 = = M E T m ; N           ",
"      d 7 7 # J *.0.a.a.r.J . p         ",
"      d 7 # E 0.a.a.0.0.a.Y = = J       ",
"      d = m 9.a.8.{ ! ^ o.D , 7 =       ",
"      d . ..a.r.^ O.3.3.$.B , 7 ; L     ",
"      p = :.a.=.) p.' { y.X.7 7 7 p     ",
"      y 7 <.a.#.#.a.Q W 3.&.y 5 7 p     ",
"      d # ;.a.-./ r.{ { 8.' 2 7 2 d     ",
"      d . ' a.u._ ' >.>.X.M 2 7 ; L     ",
"      d 2 d 3.a.r.#./ ( %.J ; 7 =       ",
"      d 7 # P 3.a.a.a.a.a.Y = = U       ",
"      d 5 7 = c #.3.p.p.3.A . m         ",
"      d 7 7 q ; # f A A q 2 S           ",
"      d 7 q 7 q 7 2 q c                 ",
"      d 7 7 q 7 7 = P                   ",
"      d 7 7 q 7 7 ; J                   ",
"      d 7 7 7 7 7 ; J                   ",
"      k q y y y y 7 P                   "
};
