/* XPM */
static char *_20effbcf274472bc9bd19e898a89490[] = {
/* columns rows colors chars-per-pixel */
"128 128 75 1 ",
"  c None",
". c #029EB3",
"X c #0CA1B5",
"o c #0EA3B8",
"O c #13A4B6",
"+ c #1AA5B7",
"@ c #15A5B9",
"# c #1AA7BB",
"$ c #1DA9BC",
"% c #21A7BA",
"& c #22AABD",
"* c #2BABBE",
"= c #33AEBF",
"- c #2DADC0",
"; c #34AEC0",
": c #39AFC1",
"> c #35B0C2",
", c #3BB1C3",
"< c #43B4C5",
"1 c #4AB3C5",
"2 c #47B8C7",
"3 c #4DB8C7",
"4 c #4EB9C9",
"5 c #52B6C7",
"6 c #53BAC9",
"7 c #5BBBCB",
"8 c #64BDCC",
"9 c #5FC0CE",
"0 c #64C0CE",
"q c #6BC1CF",
"w c #70C1CF",
"e c #62C2D0",
"r c #6DC4D1",
"t c #6FC8D4",
"y c #73C5D2",
"u c #7AC6D3",
"i c #73C9D5",
"p c #7CC9D5",
"a c #7ECDD9",
"s c #84CBD6",
"d c #89CCD7",
"f c #82CED8",
"g c #8BCDD9",
"h c #8ED3DC",
"j c #95D2DC",
"k c #9CD4DE",
"l c #A2D5DF",
"z c #9DD6E0",
"x c #99D8E1",
"c c #A3D7E0",
"v c #AAD7E0",
"b c #A6DAE2",
"n c #ABDAE3",
"m c #B3DDE5",
"M c #B9DFE6",
"N c #BBE0E7",
"B c #BDE1E8",
"V c #C1E0E7",
"C c #C5E5EB",
"Z c #CAE6EC",
"A c #C6E9EE",
"S c #CEE9EE",
"D c #D3EAEE",
"F c #D8EAEF",
"G c #D4ECF1",
"H c #DBEDF2",
"J c #DDF1F4",
"K c #E1EFF2",
"L c #E3F2F5",
"P c #EBF4F6",
"I c #EEF6F8",
"U c #F0F5F7",
"Y c #F2F6F9",
"T c #F5F9FB",
"R c #FFFFFF",
/* pixels */
"                                                                                                                                ",
"                                                                                                                                ",
"                                                                                                                                ",
"                                                                                                                                ",
"                                                                                                                                ",
"                                                                                                                                ",
"                                                                                                                                ",
"                                                                                                                                ",
"                                                                y8ry                                                            ",
"                       7o@@@@##@##@##@O#@#@##@#@####@####@##@#####@##&*-;-:                                                     ",
"                       8#&&&&&&&&&&&&&&&&&&&&&&&$$$-&&&&&&$&&&&&&&&&&&&$#$$#&>;                                                 ",
"                       8#&&&&&&&&&&&&&&&&&&&&&&&--$#&&&&&&&&&&&&&&&&&&&&-$&&&$$#*<                                              ",
"                       8#&&&&&&&&&&&&&&&&&&&&&&&#&&&&&&&&&&&&&&&&&&&&&&&&&&&&&&&&$$>                                            ",
"                       8#&&&&&&&&&&&&&&&&&&&&&&&&&&&&&&&&&&&&&&&&&&&&&&&&&&&&&&&&&&$$*                                          ",
"                       8#&&&&&&&&&&&&&&&&&&&&&&&&&&&&&&&&&&&&&&&&&&&&&&&&&&&&&&&&&&&&$#>                                        ",
"                       8#&&&&&&&&&&&&&&&&&&&&&&&&&&&&&&&&&&&&&&&&&&&&&&&&&&&&&&&&&&&&&&$#<                                      ",
"                       8$&&&&&&&&&&&&&&&&&&&&&&&&&&&&&&&&&&&&&&&&$#$$#$$&&&&&&&&&&&&&&&&&#*                                     ",
"                       8$&&&&&&&$*&&&&&&&&&&&&&&&&&&&&&&&&&&$$@OO&*::;:*&@@@#$&&&&&&&&&&&&$#3                                   ",
"                       8#&&&&&&&&&&&&&&&&&&&&&&&&&&&&&&&&$@+-<yknCDKKKHDCnjy<-#@$&&&&&&&&&&&#>                                  ",
"                       8#&&&&&&&&&&&&&&&&&&&&&&&&&&&&&&$@;ynGTRRRRRRRRRRRRRRTHnq*&&&&&&&&&&&&#*                                 ",
"                       8#&&&&&&&&&&&&&&&&&&&&&&&&&&&&@$5zKRRRRRRRRRRRRRRRRRRRRRRLu#&&&&&&&&&&&#*                                ",
"                       8#&&&&&&&&&&&&&&&&&&&&&&&&&&##6mTRRRRRRRRRRRRRRRRRRRRRRRRRm@&&&&&&&&&&&&$*                               ",
"                       8#&&&&&&&&&&&&&&&&&&&&&&&*$@<nTRRRRRRRRRRRRRRRRRRRRRRRRRRRn@&&&&&&&&&&&&&$&                              ",
"                       8#&&&&&&&&&&&&&&&&&&&&&&&@%sPRRRRRRRRRRRRRRRRRRRRRRRRRRRRRn@&&&&&&&&&&&&&&$&                             ",
"                       8#&&&&&&&&&&&&&&&&&&&&&&#:BRRRRRRRRRRRRRRRRRRRRRRRRRRRRRRRn@&&&&&&&&&&&&&&*$:                            ",
"                       8#&&&&&&&&&&&&&&&&&&&&&@7KRRRRRRRRRRRRRRRRRRRRRRRRRRRRRRRRn@&&&&&&&&&&&&&&$&@1                           ",
"                       8#&&&&&&&&&&&&&&&&&&&$@yTRRRRRRRRRRRRRRRRRRRRRRRRRRRRRRRRRn@&&&&&&&&&&&&&&&&&$                           ",
"                       8#&&&&&&&&&&&&&&&&&&$#gTRRRRRRRRRRRRRRRRRRRRRRRRRRRRRRRRRRn@&&&&&&&&&&&&&&&&&&$                          ",
"                       8#&&&&&&&&&&&&&&&&&&@uRRRRRRRRRRRRRRRRRRRRRRRRRRRRRRRRRRRRn@&&&&&&&&&&&&&&&&&&#:                         ",
"                       8#&&&&&&&&&&&&&&&&&OrTRRRRRRRRRRRRRRRRRRRRRRRRRRRRRRRRRRRRn@&&&&&&&&&&&&&&&&&&&@                         ",
"                       8#&&&&&&&&&&&&&&&&@5IRRRRRRRRRRRRRRRRRRRRRRRRRRRRRRRRRRRRRn@&&&&&&&&&&&&&&&&&&&$-                        ",
"                       8#&&&&&&&&&&&&&&&$;GRRRRRRRRRRRRRRRRRRRRRRYLGZZGLYRRRRRRRRn@&&&&&&&&&&&&&&&&&&&&$7                       ",
"                       8#$&&&&&&&&&&&&&&#nRRRRRRRRRRRRRRRRRRRRLct1*%$&&*1rcKRRRRRn@&&&&&&&&&&&&&&&&&&&&$&                       ",
"                       8#-&&&&&&&&&&&&&O8RRRRRRRRRRRRRRRRRRRCy*#O@OoOOO@oo#-rCRRRn@&&&&&&&&&&&&&&&&&&&&&#                       ",
"                       8#&&&&&&&&&&&&&$=GRRRRRRRRRRRRRRRRRD8%@O@$<7titie1-O@O&0DRn@&&&&&&&&&&&&&&&&&&&&&&-                      ",
"                       8#&&&&&&&&&&&&&#gRRRRRRRRRRRRRRRRRj&@@+3jGYRYIIUTTLm7&OO*ln#&&&&&&&&&&&&&&&&&&&&&&#                      ",
"                       8#&&&&&&&&&&&&#,IRRRRRRRRRRRRRRRIw@#@<mRPMy<;===,ekHRDq$O$,%&&&&&&&&&&&&&&&&&&&&&&#,                     ",
"                       8#&&&&&&&&&&&&@gRRRRRRRRRRRRRRRI7@#%sTIs*o*3ysgy7*+#8SRN=@$&&&&&&&&&&&&&&&&&&&&&&&&&                     ",
"                       8#&&&&&&&&&&&$-HRRRRRRRRRRRRRRT7@#*MRz*O7nLTRRRRRUBu%@qPL3@&&&&&&&&&&&&&&&&&&&&&&&&#                     ",
"                       8#&&&&&&&&&&&@rRRRRRRRRRRRRRRRuO#*ZT8X<BRRRRRRRRRRRRJyO=DY7@&&&&&&&&&&&&&&&&&&&&&&&$,                    ",
"                       8#&&&&&&&&&&&#NRRRRRRRRRRRRRRm#$*ZT4XsTRRRRRRRRRRRRRRRM*%ZY5@&&&&&&&&&&&&&&&&&&&&&&&-                    ",
"                       8#&&&&&&&&&&#,PRRRRRRRRRRRRRL,##bR7XcRRRRRRRRRRRRRRRRRRS**JH*$&&&&&&&&&&&&&&&&&&&&&&@                    ",
"                       8#&&&&&&&&&&@rRRRRRRRRRRRRRRs@O7RgXgRRRRRRRRRRTRRRRRRRRRZ+<Tl@%&&&&&&&&&&&&&&&&&&&&&#8                   ",
"                       8#&&&&&&&&&&#lRRRRRRRRRRRRRL=#*GZX0RRRRRRRRRgrIhrIRRRRRRRnXdR3#&&&&&&&&&&&&&&&&&&&&&$,                   ",
"                       8#&&&&&&&&&$&SRRRRRRRRRRRRRj@@wR3%HRRRRRRRRR2%L1#YRRRRRRRR8+LM#&&&&&&&&&&&&&&&&&&&&&$>                   ",
"                       8#&&&&&&&&&$:IRRRRRRRRRRRRR6@$CZOgRRRRRRkipp>*y,&jFRRRRRRRD@sT<#&&&&&&&&&&&&&&&&&&&&$-                   ",
"                       e@&&&&&&&&&#6TRRRRRRRRRRRRF*@<Tp$HRRRRRR<.@@$OXO#+*kRRRRRRR7*Td@&&&&&&&&&&&&&&&&&&&&&*                   ",
"                       9@&&&&&&&&&@yRRRRRRRRRRRRRb##uY=7RRRRRRRBy%&#9ee,$##CRRRRRRbOZC%$&&&&&&&&&&&&&&&&&&&&#                   ",
"                       7#&&&&&&&&&OaRRRRRRRRRRRRRg@@bH#jRRRRRRRRS%$&LRRH;$OkRRRRRRG@jP=#&&&&&&&&&&&&&&&&&&&&@                   ",
"                       5#-&&&&&&&&#hRRRRRRRRRRRRRq@$CM+CRRRRRRRRZ$$&LRRT,#@CRRRRRRP=yT,$&&&&&&&&&&&&&&&&&&&&@                   ",
"                       1#$$-&&&&&&OhRRRRRRRRRRRRR8@%Fm+DRRRRRRRRZ$&&cVme$#8TRRRRRRT17T<#&&&&&&&&&&&&&&&&&&&&@                   ",
"                       1#-$$&&&&&&OhRRRRRRRRRRRRR8@*Dl$JRRRRRRRRZ$&&OOOO$5PRRRRRRRR61R8@&&&&&&&&&&&&&&&&&&&&#r                  ",
"                       1$-$$&&&&&#OhRRRRRRRRRRRRR8@*Dl%DRRRRRRRRC#&&7t8:#-7LRRRRRRT37T2#&&&&&&&&&&&&&&&&&&&&#i                  ",
"                       1#&$-&&&&&-OjRRRRRRRRRRRRRq@$Sm+CRRRRRRRRZ$#&JRRH<#oyRRRRRRP,wT,#&&&&&&&&&&&&&&&&&&&&#                   ",
"                       7#&&&&&&&&&@fRRRRRRRRRRRRRs@@nH+kRRRRRRRRC&#&JRRRi@@<TRRRRRH+hI>$&&&&&&&&&&&&&&&&&&&&#                   ",
"                       7#&&&&&&&&&@yRRRRRRRRRRRRRbO@dT*0RRRRRRRRS&&&LRRH<$@3TRRRRRnXCS&$&&&&&&&&&&&&&&&&&&&&O                   ",
"                       8#&&&&&&&&&#7RRRRRRRRRRRRRS*@<Tr*LRRRRRRZu$&&9ir>$$OjRRRRRR8*Th@%&&&&&&&&&&&&&&&&&&&&*                   ",
"                       8#&&&&&&&&&#,IRRRRRRRRRRRRT<@%DBOkRRRRRR<.OO$OXo$$%sTRRRRRH#yT3#&&&&&&&&&&&&&&&&&&&&$-                   ",
"                       8#&&&&&&&$$-$GRRRRRRRRRRRRRs@@pR<=PRRRRRxipp:-t,&jGRRRRRRRyODZ%&&&&&&&&&&&&&&&&&&&&&$>                   ",
"                       8$&&&&&&&--$#nRRRRRRRRRRRRRF%#*KMXyRRRRRRRRR3%P4#IRRRRRRRBOrR7#&&&&&&&&&&&&&&&&&&&&&$-                   ",
"                       8@&&&&&&&$$#@iRRRRRRRRRRRRRRr@@rRyXbRRRRRRRTs0Pa7IRRRRRRH*=Im#&&&&&&&&&&&&&&&&&&&&&&#6                   ",
"                       8$&&&&&&&#--#<IRRRRRRRRRRRRRH*##MT<+NRRRRRRRRRRRRRRRRRRK:@ZP,#&&&&&&&&&&&&&&&&&&&&&&#                    ",
"                       8#&&&&&&&&&&$$CRRRRRRRRRRRRRRj@$:JP,+kRRRRRRRRRRRRRRRRS,OnR8@&&&&&&&&&&&&&&&&&&&&&&$*                    ",
"                       8#&&&&&&&&&&&@sRRRRRRRRRRRRRRT8@#,HL<X0HRRRRRRRRRRRRIj$%NRpO&&&&&&&&&&&&&&&&&&&&&&&#,                    ",
"                       8#&&&&&&&&&&&$:PRRRRRRRRRRRRRRL,@#=DRsO%uCTRRTRRRTLj=X3FT0#&&&&&&&&&&&&&&&&&&&&&&&&#7                    ",
"                       8#&&&&&&&&&&&$OcRRRRRRRRRRRRRRRG:##*lRF0##,qhbnjp3&X<mRD3@$&&&&&&&&&&&&&&&&&&&&&&&&$                     ",
"                       8#&&&&&&&&&&&&$3YRRRRRRRRRRRRRRRH<@#$7ZRHj3=%OX+=<yZRPg*@#*&&&&&&&&&&&&&&&&&&&&&&&#,                     ",
"                       8#&&&&&&&&&&&&$#vRRRRRRRRRRRRRRRRPw@#@$7mLRUKZZHPRUZu=@@#yj#&&&&&&&&&&&&&&&&&&&&&&#                      ",
"                       8#&&&&&&&&&-$&&#,PRRRRRRRRRRRRRRRRRn<@@O@=5yjllkp7<#@OO<nRm@&&&&&&&&&&&&&&&&&&&&&$*                      ",
"                       8#&&&&&&&&&&$&&&@pRRRRRRRRRRRRRRRRRRPk3$@@@O@#$@OOOO$3jIRRn@&&&&&&&&&&&&&&&&&&&&&$1                      ",
"                       8#&&&&&&&&&&&&&&$$CRRRRRRRRRRRRRRRRRRRTMp1*$#$+$%-<pNTRRRRn@&&&&&&&&&&&&&&&&&&&&&&                       ",
"                       e#&&&&&&&&&&&&&&%#3IRRRRRRRRRRRRRRRRRRRRRYJCmlkmVHTRRRRRRRn@&&&&&&&&&&&&&&&&&&&&$3                       ",
"                       8#&&&&&&&&&&&&&&&&OyRRRRRRRRRRRRRRRRRRRRRRRRRRRRRRRRRRRRRRn@&&&&&&&&&&&&&&&&&&&&&                        ",
"                       8#&&&&&&&&&&&&&&&&&#gRRRRRRRRRRRRRRRRRRRRRRRRRRRRRRRRRRRRRn@&&&&&&&&&&&&&&&&&&&#6                        ",
"                       8#&&&&&&&&&&&&&&&&&$%kRRRRRRRRRRRRRRRRRRRRRRRRRRRRRRRRRRRRn@&&&&&&&&&&&&&&&&&&$;                         ",
"                       8@&&&&&&&&&&&&&&&&$*$$lRRRRRRRRRRRRRRRRRRRRRRRRRRRRRRRRRRRn@&&&&&&&&&&&&&&&&&$$                          ",
"                       8#&&&&&&&&&&&&&&&&&&&$$kRRRRRRRRRRRRRRRRRRRRRRRRRRRRRRRRRRn@&&&&&&&&&&&&&&&&&#7                          ",
"                       8#&&&&&&&&&&$&&&&&&&&&$#pTRRRRRRRRRRRRRRRRRRRRRRRRRRRRRRRRn@&&&&&&&&&&&&&&&&#-                           ",
"                       8#&&&&&&&&&-$&&&&&&&&&&&@7KRRRRRRRRRRRRRRRRRRRRRRRRRRRRRRRn@&&&&&&&&&&&&&&&$*                            ",
"                       8#&&&&&&&&&&&&&&&&&&&&&#-O:nRRRRRRRRRRRRRRRRRRRRRRRRRRRRRRn#&&&&&&&&&&&&&&$&                             ",
"                       8$$$-&&&&&&&&&&&&&&&&&&&&&$$rSRRRRRRRRRRRRRRRRRRRRRRRRRRRRn#&&&&&&&&&&&&&&$                              ",
"                       8#-$$&&&&&&&&&&&&&&&&&&&&&&$O*pHRRRRRRRRRRRRRRRRRRRRRRRRRRn@$&&&&&&&&&&&$#                               ",
"                       8#$$-&&&&&&&&&&$-&&&&&&&&&&&&$@-iZRRRRRRRRRRRRRRRRRRRRRRRTj@&&&&&&&&$&-##                                ",
"                       8#-$$&&&&&&&&&&$&&&&&&&&&&&&&%&$@%6jDTRRRRRRRRRRRRRRRRTSj6*&&&&&&&&&$&$-                                 ",
"                       8#$&&&&&&&&&&&&&&&&&&&&&&&&&&&&&&$$@*,yzBGITTRRTTPFNxy<*O#$&&&&&&&&&-#*                                  ",
"                       8@-&&&&&&&&&&&&&&&&&&&&&&&&&&&&&&&&&$$@O$*,<<44<<,-#O@#$&&&&&&&&&&&&#,                                   ",
"                       8@&&&&&&&&&&&&&&&&&&&&&&&&&&&&&&&&&&&%&&&$$#######$&&&&&&&&&&&&&&&$$5                                    ",
"                       8#&&&&&&&&&&&&&&&&&$$-&&&&&&&&&&&&&&&&&&&&&&&$$$-&&&&&&&&&&&&&&&&#;                                      ",
"                       8$&&&&&&&&&&&&&&&&&&&&&&&&&&&&-&&&&&&&&&&&&&&&&&&&&&&&&&&&&&&&&#&<                                       ",
"                       8$&&&&&&&&&&&&&&&&&&&&&&&&&&&$$&&&&&&&&&&&&&&&&&&&&&&&&&&&&&&#&6                                         ",
"                       8#$&&&&&&&-&&&&&&&&&&&&&&&&&&&&&&&&&&&&&&&&&&&&&&&&&&&&&&&$$&1                                           ",
"                       8@-&&&&&&$$&&&&&&&&&&&&&&&&&&&&&&&&&&&&&&&&&&&&&&&&&&&&$%#;3                                             ",
"                       8#&&&&&&&&&&&&&&&&&&&&&&&&&&&&&&&&-$$&&&&&&&&&&&&&$$&#&;,                                                ",
"                       8#$&&&&&&&&&&&&&&&&&&&&&&&&&&&&&&&&&&&&&&&&&&$#@$*;*=                                                    ",
"                       8#&&&&&&&&&&&&&&&&&&&-&&&&&&&&&&&&&&&&&&&&&&&6r                                                          ",
"                       8#&&&&&&&&&&&&&&&&&&$$&&&&&&&&&&&&&&&&&&&&&&&                                                            ",
"                       8$-&&&&&&&&-&&&&&&&&&&&&&&&&&&&&&&&&&&&&&&&&&                                                            ",
"                       8#$&&&&&&&&$$&&&&&&&&&&&&&&&&&&&&&&&&&&&&&&$&                                                            ",
"                       8#&&&&&&&&&&&&&&&&&&&&&&&&&&&&&&&&&&&-&&&&&$&                                                            ",
"                       8@&&&&&&&&&&&&&&&&&&&&&&&&&&&&&&&&&&&$$&&&&&&                                                            ",
"                       8@&&&&&&-&&&&&&&&&&&&&&&&&&&&&&&&&&&&&&&&&&&&                                                            ",
"                       8@&&&&&&$&&&&&&&&&&&&&&&$&&&&&&&&&&&&&&&&&&$&                                                            ",
"                       8$&&&&&&&&&&&&&&&&&&&&&&$&&&&&&&-&&&&&&&&&&-#                                                            ",
"                       8@&&&&&&&&&&&&&&&&&&&&&&-&&&&&&&$&&&&&&&&&&&&                                                            ",
"                       8$&&&&&&&&&&$&&&&&&&&&&&&&&&&&&&&&&&&&&&&&&&&                                                            ",
"                       8@&&&&&&&&&-$&&&&&&&&&&&&&&&&&&&&&&&&&&&&&&$&                                                            ",
"                       8$$&&&&&&&&&&&&&&&&&&&&&&&&&&&&&&&&&&&&&&&&&&                                                            ",
"                       8@-&&&&&&&&&&&&&&-&&&&&&&&&&&&&&&&&&&&&&&&&$&                                                            ",
"                       8@&&&&&&&&&&&&&&&$&&&&&&&&&&&&&&&&&&&&&&&&&$&                                                            ",
"                       8#&&&&&&&&&&&&&&&$&&&&&&&&&&&&&&&&&&&&&&&&&&&                                                            ",
"                       8#-&&&&&&&&&&&&&&&&&&&&&&&&&&&&&&&&&&&&&&&&$&                                                            ",
"                       8@$&&&&&&&&&&&&&&&&&&&&&&&&&&&&&&&&&&&&&&&&$-                                                            ",
"                       8$-&&&&&&&&&&&&&&&&&&&&&&$--$$$$-$$$-$$$$&&$&                                                            ",
"                       8@$&&&&&&&&&&&&&&&&&&&&&&$$$$%-$$--$$-$--&&&&                                                            ",
"                       8@&&&&&&&&&&&&&&&&&&&&&&&-$-$-$-$$$-$$$$$&$$&                                                            ",
"                       8$&&&&&&&&&&&&&&&&&&&&&&&-$$$-$$$-$%$$--$&-$&                                                            ",
"                       8#$$$&&&&&&&&&&&&&&&&&&&&$$$$$-$$$$$-$-$$&&-$                                                            ",
"                       8#$--&&&&&%&&&&&&&&&&&&&%$-$--%$-$-$$$-$-&&$$                                                            ",
"                       8@$#$$$$$$$$$$$$$$$$$$$$$$#$$#$$#$$$$$$$&$$$$                                                            ",
"                        <1111112111111111111111111111111111111<1<111                                                            ",
"                                                                                                                                ",
"                                                                                                                                ",
"                                                                                                                                ",
"                                                                                                                                ",
"                                                                                                                                ",
"                                                                                                                                ",
"                                                                                                                                ",
"                                                                                                                                "
};
