/* XPM */
static char *_36e1be7e87642c58a100949d55796e4[] = {
/* columns rows colors chars-per-pixel */
"96 96 69 1 ",
"  c None",
". c #07A0B5",
"X c #0CA2B7",
"o c #0FA3B8",
"O c #15A4B7",
"+ c #18A5B7",
"@ c #15A5B9",
"# c #1AA7BB",
"$ c #1CA8BC",
"% c #24A6BA",
"& c #22AABD",
"* c #2AACBE",
"= c #33ADBF",
"- c #2EAEC0",
"; c #33AEC1",
": c #39AEC0",
"> c #36B0C1",
", c #3CB2C3",
"< c #42B2C3",
"1 c #4BB6C6",
"2 c #4DB8C7",
"3 c #45B7C8",
"4 c #4AB7C8",
"5 c #47B8C8",
"6 c #4EB9C9",
"7 c #55B9C9",
"8 c #5BBCCB",
"9 c #63BECD",
"0 c #6BBFCD",
"q c #5DC1CF",
"w c #65C1CE",
"e c #69C1CF",
"r c #65C2D0",
"t c #6AC3D0",
"y c #75C6D3",
"u c #79C7D4",
"i c #74C9D5",
"p c #7CC9D5",
"a c #83CCD7",
"s c #84CED9",
"d c #8ACFD9",
"f c #8CD1DB",
"g c #94D3DC",
"h c #9BD5DE",
"j c #A0D6DF",
"k c #9FD7E1",
"l c #9ED9E2",
"z c #A1D7E0",
"x c #A4D9E2",
"c c #ACDCE4",
"v c #B2DDE5",
"b c #B5E0E7",
"n c #B8E0E7",
"m c #B7E3E9",
"M c #BDE2E9",
"N c #C3E4EA",
"B c #CAE7EC",
"V c #CDE9EE",
"C c #D1EAEF",
"Z c #D5ECF0",
"A c #DBEEF2",
"S c #DEF0F3",
"D c #E0EFF3",
"F c #E4F2F5",
"G c #EAF4F6",
"H c #EDF6F8",
"J c #F1F6F9",
"K c #F5F9FB",
"L c #FFFFFF",
/* pixels */
"                                                                                                ",
"                                                                                                ",
"                                                                                                ",
"                                                                                                ",
"                                                                                                ",
"                rttttttttttttttttrtrttrtrrtrtrw878                                              ",
"               2o@#@@@@@#@#@#@#@####@####@######$$&&&$*,<                                       ",
"               7$&&&&&&&$&&&$&&&&$&&$&&&&&&&&$&&&&&&&&$$$$-<                                    ",
"               7$$-&&&&&&&&&&&&&&&&&&&&&&&&&&&&&&&&&&&&&&&&$$;                                  ",
"               7#$$$$-&&&&&&&&&&&&&&&&&&&&&&&&&&&&&&&&&&&&&&&&#*                                ",
"               7#-&&&&&&&&&&&&&&&&&&&&&&&&&&&&&&&&$&&&&&&&&&&&&$#;                              ",
"               7#&&&&&&&&&&&&&&&&&&&&&&&&&&&&&$$##@##$&$&&&&&&&&&$&6                            ",
"               7#&&&&&&&&&&&&&&&&&&&&&&&&&##@&;<70w07<;&O$$&&&&&&&&#;                           ",
"               7#&&&&&&&&&&&&&&&&&&&&&&$#$<ycCHKLLLLLKGBzt;$&&&&&&&&$-                          ",
"               7#&&&&&&&&&&&&&&&&&&&&$#*eMKLLLLLLLLLLLLLLLHc>$&&&&&&&$$                         ",
"               7#&&&&&&&&&&&&&&&&&&&#&yALLLLLLLLLLLLLLLLLLLL6#&&&&&&&&#-                        ",
"               7$&&&&&&&&&&&&&&&&&##9CLLLLLLLLLLLLLLLLLLLLLK6$&&&&&&&&&$$                       ",
"               7$&&&&&&&&&&&&&&&&#*zLLLLLLLLLLLLLLLLLLLLLLLL4$&&&&&&&&&&$-                      ",
"               7$&&&&&&&&&&&&&&$#,BLLLLLLLLLLLLLLLLLLLLLLLLK<$&&&&&&&&&&-@;                     ",
"               7$&&&&&&&&&&&&&&#2FLLLLLLLLLLLLLLLLLLLLLLLLLL4$&&&&&&&&&&#-#<                    ",
"               7$&&&&&&&&&&&&&#6HLLLLLLLLLLLLLLLLLLLLLLLLLLL4#&&&&&&&&&&&&&#                    ",
"               7$&&&&&&&&&&&&$,FLLLLLLLLLLLLLLLLLLLLLLLLLLLK4#&&&&&&&&&&&&&$>                   ",
"               7#&&&&&&&&&&&$*CLLLLLLLLLLLLLLLLLLLLLLLLLLLLL6#&&&&&&&&&&&&&&@                   ",
"               7#&&&&&&&&&&%$cLLLLLLLLLLLLLLLKBhir8tpxCLLLLK4#&&&&&&&&&&&&&&&-                  ",
"               7#&&&&&&&&&&#eLLLLLLLLLLLLLLFg1$X.....X$6zJLL1#&&&&&&&&&&&&&&-@                  ",
"               7#&&&&&&&&&$*SLLLLLLLLLLLLLg*XO;wglljge,XX,cL6$&&&&&&&&&&&&&&&&-                 ",
"               7#&&&&&&&&&#fLLLLLLLLLLLLS7X@6vFCcgggcVFb7@Ot<#&&&&&&&&&&&&&&&&@                 ",
"               7#&&&&&&&&#>HLLLLLLLLLLLZ,X*xHz<*=7w7,*,hGn*X$&&&&&&&&&&&&&&&&&@,                ",
"               7#&&&&&&&&#pLLLLLLLLLLLS>X,AN=*fCLLLLKAg>*vD1#&&&&&&&&&&&&&&&&&&-                ",
"               7$&&&&&&&$$VLLLLLLLLLLK7X,GhOpHLLLLLLLLLJf+dJ6#&&&&&&&&&&&&&&&&&@                ",
"               7$&&&&&&&#2LLLLLLLLLLLdX*Dj$cLLLLLLLLLLLLLN$dH;$&&&&&&&&&&&&&&&&#2               ",
"               7#$&&&&&&#dLLLLLLLLLLA-OzBOcLLLLLLKLLLLLLLLM$vvO&&&&&&&&&&&&&&&&&,               ",
"               7#&&&&&&&$NLLLLLLLLLLpX4G>yLLLLLLK7vdtLLLLLLg%G8$&&&&&&&&&&&&&&&&$               ",
"               7#&&&&&&$*FLLLLLLLLLH>Ocx*HLLLLMMv&y7,FLLLLLL,fM#&$&&&&&&&&&&&&&&&               ",
"               7#&&&&&&#1KLLLLLLLLLM$*D2aLLLLG$##&XO@-dLLLLLj=G,$-&&&&&&&&&&&&&&&               ",
"               2$&&&&&$#8LLLLLLLLLLd.8A&ZLLLLKN,@,ff7@ONLLLLG*Vu@&&&&&&&&&&&&&&&@               ",
"               1$&&&&&&@iLLLLLLLLLLe.sv,KLLLLLL7oqLLC$XvLLLLL<xj@&&&&&&&&&&&&&&&@t              ",
"               <$&&&&&&#iLLLLLLLLLL8Okj2LLLLLLK6@6VNe#1HLLLLL9fco$&&&&&&&&&&&&&&#t              ",
"               <$&&&&&$@iLLLLLLLLLL7Xzj7LLLLLLL6#$##O&vLLLLLLeiN@-&&&&&&&&&&&&&&$q              ",
"               <$&&&&&&@iLLLLLLLLLL8Xhj2LLLLLLK6@3mv0$*MLLLLLwdc@&&&&&&&&&&&&&&&@r              ",
"               1$-$$&&&#tLLLLLLLLLLe.pM,KLLLLLL6XqLLK;X9LLLLL<xl@&&&&&&&&&&&&&&&@t              ",
"               6#$-&&&&@9LLLLLLLLLLfX8S&VLLLLLL6o8LLc&owLLLLF%Ci@&&&&&&&&&&&&&&&@               ",
"               7#&&&&&&#3KLLLLLLLLLN#*A6pLLLLJt&#*,,&X&NLLLLg,G,$&&&&&&&&&&&&&&&-               ",
"               7$&&&&&&$-FLLLLLLLLLH;Oxc*GLLLH133&--=uVLLLLK=gv$&&&&&&&&&&&&&&&&#               ",
"               7#&&$&&&$$nLLLLLLLLLLaX,H<eLLLLLLH&ht<LLLLLLa=H8+&&&&&&&&&&&&&&&&$               ",
"               7$&&--$&&#sLLLLLLLLLLS*@hC$hLLLLLKgVmxLLLLLcONc#&&&&&&&&&&&&&&&&$,               ",
"               8@&&&&&&&#6LLLLLLLLLLLg@&Cb+hLLLLLLLLLLLLLcOgF*#&&&&&&&&&&&&&&&-#<               ",
"               7@-&&&$$-$%VLLLLLLLLLLK7X>Ac$eFLLLLLLLLLGu+hH3#&&&&&&&&&&&&&&&&$@                ",
"               7$&&&&&&&&#pLLLLLLLLLLLF,X=VC5%uNHLLLJVa*>BA<$&&&-$&&&&&&&&&&&&&-                ",
"               7#&&&&&&&&$-GLLLLLLLLLLLZ,o&gHb7*=321=*2cHx&O$&&&$$&&&&&&&&&&&&$,                ",
"               7#&&&&&&&&&@dLLLLLLLLLLLLF8Oo,hAAMjdhMAAc2X#t3$&&$-&&&&&&&&&&&&#                 ",
"               7#&&&&&&&&&$*ALLLLLLLLLLLLLh=oo&7pgjgp7*XX,cL6#&&#-&&&&&&&&&&&&-                 ",
"               7#&&&&&&&&&&#wLLLLLLLLLLLLLLGh1$X.XXX.X&7xHLL4$&&&&&&&&&&&&#&&@                  ",
"               7#&&&&&&&&&&&#xLLLLLLLLLLLLLLLLCzay9yaxALLLLL4$&&&&&&&&&&&&-#$-                  ",
"               7#$&&&&&&&&&&#*ZLLLLLLLLLLLLLLLLLLLLLLLLLLLLK4#&&&&&&&&&&&&&-@                   ",
"               7$&&&&&&&&&&&&@,FLLLLLLLLLLLLLLLLLLLLLLLLLLLL4@&&&&&&&&&&&&&#>                   ",
"               7$&&&&&&&&&&&&&#3FLLLLLLLLLLLLLLLLLLLLLLLLLLK6@%&&&&&&&&&#--#                    ",
"               7$&&&&&&&&&&&&&&#1FLLLLLLLLLLLLLLLLLLLLLLLLLL4$&&&&&&&&&&&$@8                    ",
"               7#$&&&&&&&&&&&&&&#;BLLLLLLLLLLLLLLLLLLLLLLLLL4#&&&&&&&&&&&#;                     ",
"               7$&&&&&&&&&&&&&&&&#&hLLLLLLLLLLLLLLLLLLLLLLLK4#&&&&&&&&&&#-                      ",
"               7$&&&&&&&&&&&&&&&&&$O7VLLLLLLLLLLLLLLLLLLLLLK4#-$&&&&&$&&$                       ",
"               7$&&&&&&&&&&&&&&&&&&&$&uCLLLLLLLLLLLLLLLLLLLL6#&&&&&&&-$&                        ",
"               7$$&&&&&&&&&&&&&&&&&&&&#&rMJLLLLLLLLLLLLLLLGc;$&&&&&&&$$                         ",
"               7$&&&&&&&&&&&&&&&&&&&&&&$#$,yhVFKLLLLLJFBhw;#$&&&&&&&#-                          ",
"               7$&&&&&&&&&&&&&&&&&&&&&&&&&####;378qq2<-#@@#&&&&&&&&#,                           ",
"               7$&&&&&&&&&&&&&&&&&&&&&&&&&&&&$$##@@@@#$&&&-#&&$--#&7                            ",
"               7$&&&&&&&&&&&&&&&&&&&&&&&&&&&&&&&$&&&&&&&&&&#&&&$@>                              ",
"               7$&&&&&&&&&&&&&&&&&&&&&&&&&&&&&&&&&&&&&&&&&&-&&@>                                ",
"               7$&&&&&&&&&&&&&&&&&&&&&&&&&&&&&&&&&&&&&&&-$&#&-                                  ",
"               7$&&&&&&&&&&&&&&&&&&&&&&&&&&&&&&&&&&&&&&$$$-,                                    ",
"               7$&&&&&&&&&&&&&&&&&&&&&&&&&&&&&&&&$###-->2                                       ",
"               7#$&&&&&&&&&&&&&&&&&&&&&&&&&&&&&&$>                                              ",
"               7#&&&&&&&&&&&&&&&&&&&&&&&&&&&&&&&$6                                              ",
"               7#&&&&&&&&&&&&&&&&&&&&&&&&&&&&&&&#7                                              ",
"               7#&&&&&&&&&&&&&&&&&&&&&&&&&&&&&&&#6                                              ",
"               7#&&&&&&&&&&&&&&&&&&&&&&&&&&&&&&&#6                                              ",
"               7$&&&&&&&&&&&&&&&&&&&&&&&&&&&&&&&#6                                              ",
"               7$&&&&&&&&&&&&&&&&&&&&&&&&&&&&&&&#6                                              ",
"               7$&&&&&&&&&&&&&&&&&&&&&&&&&&&&&&&#6                                              ",
"               7#&&&&&&&&&&&&&&&&&&&&&&&&&&&&&&&$6                                              ",
"               7$&&&&&&&&&&&&&&&&&&&&&&&&&&&&&&&$6                                              ",
"               7#$&&&&&&&&&&&&&&&&&&&&&&&&&&&&&&$6                                              ",
"               7$&&&&&&&&&&&&&&&&&&&&&&&&&&&&&&&$6                                              ",
"               7$&&&&&&&&&&&&&&&&&&&&&&&&&&&&&&&$6                                              ",
"               7$$&&&&&&&&&&&&&&&&&&&&&&&&&&&&&&$6                                              ",
"               7$&&&&&&&&&&&&&&&&&&&&&&&&&&&&&&&#4                                              ",
"               7$&&&&&&&&&&&&&&&&&&&&&&&&&&&&&&&$6                                              ",
"               7$$&&&&&&&&&&&&&&&&&&&&&&&&&&&&&&$6                                              ",
"               7$&&&&&&&&&&&&*&&&&&&&&&&&&&&&&&&$4                                              ",
"               7#$$$$$$$$&$$$$$$$$$$&$$$$$$$$$$$#4                                              ",
"               0=<<<<<<<,<<<<<<<<<<<<<<<<<<<<<<<;0                                              ",
"                                                                                                ",
"                                                                                                ",
"                                                                                                ",
"                                                                                                ",
"                                                                                                "
};
